<svg width="50" height="48" viewBox="0 0 50 48" fill="none" xmlns="http://www.w3.org/2000/svg">
<path fill-rule="evenodd" clip-rule="evenodd" d="M33.599 18.685H34.976V16.681H34.961C34.591 17.185 34.099 17.891 33.599 18.685ZM36.579 20.193V20.454H34.281V20.194C34.94 20.144 34.98 20.034 34.98 19.564V19.124H33.02V18.814C33.7751 17.7285 34.5689 16.6705 35.4 15.642H35.95V18.683H36.65V19.123H35.95V19.593C35.95 20.063 36.009 20.143 36.579 20.193ZM29.3 12.631L28.912 12.601V12.381C29.421 12.301 29.992 12.171 30.662 11.981V15.882C30.662 16.412 30.722 16.542 31.331 16.582V16.842H28.971V16.582C29.581 16.542 29.651 16.432 29.651 15.882V13.112C29.651 12.702 29.621 12.652 29.301 12.632L29.3 12.631ZM35.62 12.831L30.21 20.343C30.1864 20.377 30.1551 20.4048 30.1185 20.4241C30.082 20.4434 30.0413 20.4537 30 20.454C29.943 20.453 29.8874 20.4357 29.84 20.404C29.786 20.3606 29.7501 20.2987 29.7393 20.2302C29.7286 20.1618 29.7438 20.0918 29.782 20.034L35.231 12.481C32.6816 10.2336 29.3985 8.99593 26 9.00099V22.994H40C40 18.994 38.32 15.382 35.62 12.831ZM22.27 33.428H21.58V33.908C21.58 34.368 21.63 34.448 22.202 34.498V34.758H19.91V34.498C20.559 34.448 20.599 34.338 20.599 33.878V33.428H18.64V33.118C19.48 31.948 20.29 30.848 21.02 29.946H21.58V32.998H22.27V33.428ZM15.5 31.248C15.11 31.248 14.8 31.108 14.642 30.988C14.512 30.888 14.461 30.788 14.461 30.688C14.461 30.548 14.591 30.408 14.691 30.338C14.781 30.268 14.871 30.248 14.981 30.328C15.141 30.478 15.511 30.818 15.971 30.818C16.351 30.818 16.651 30.498 16.651 29.776C16.651 29.046 16.151 28.786 15.731 28.786C15.591 28.786 15.431 28.806 15.311 28.836L15.261 28.576C15.911 28.366 16.371 28.056 16.371 27.586C16.371 27.086 16.051 26.886 15.711 26.886C15.321 26.886 15.061 27.106 14.791 27.466L14.591 27.276L14.981 26.766C15.1156 26.6126 15.2818 26.4902 15.4683 26.4074C15.6547 26.3245 15.857 26.2831 16.061 26.286H16.071C16.871 26.286 17.321 26.726 17.321 27.326C17.321 27.526 17.221 27.706 17.081 27.836C16.951 27.956 16.771 28.066 16.521 28.226V28.246C17.261 28.376 17.651 28.876 17.651 29.456C17.651 30.706 15.981 31.247 15.501 31.247L15.5 31.248ZM25 9.99999C17.27 9.99999 11 16.262 11 23.995C11 28.046 12.722 31.697 15.472 34.248L21.101 26.456C21.181 26.336 21.351 26.316 21.471 26.396C21.581 26.476 21.611 26.646 21.531 26.766L15.871 34.598C18.4057 36.7933 21.6468 38.0011 25 38C32.73 38 39 31.738 39 23.996H25V9.99999ZM19.222 32.998H20.6V30.988H20.58C20.21 31.498 19.72 32.198 19.22 32.998H19.222Z" fill="#9371B5"/>
</svg>
