<svg width="50" height="48" viewBox="0 0 50 48" fill="none" xmlns="http://www.w3.org/2000/svg">
<path fill-rule="evenodd" clip-rule="evenodd" d="M15.107 17.896C15.877 17.896 16.482 17.18 17.705 15.226L18.097 16.479C18.399 17.479 18.732 17.896 19.2 17.896C19.744 17.896 20.544 17.403 21.359 16.121L21.072 15.778C20.559 16.375 20.227 16.644 20.015 16.644C19.819 16.644 19.607 16.285 19.395 15.554L18.837 13.794C19.154 13.332 19.472 12.974 19.729 12.691C20.045 12.348 20.272 12.184 20.453 12.184C20.603 12.184 20.725 12.257 20.801 12.362C20.891 12.452 21.556 10.975 21.087 10.975C20.423 10.975 19.819 11.542 18.641 13.227L18.384 12.481C18.052 11.498 17.841 10.976 17.372 10.976C16.829 10.976 16.074 11.631 15.318 12.691L15.636 13.048C16.119 12.421 16.391 12.244 16.542 12.244C16.678 12.244 16.814 12.377 17.07 13.197L17.508 14.614C16.692 15.853 16.044 16.569 15.681 16.569C15.6131 16.5728 15.5452 16.5614 15.4824 16.5354C15.4196 16.5094 15.3634 16.4696 15.318 16.419C15.243 16.331 15.152 16.271 15.046 16.271C14.745 16.271 14.352 16.614 14.352 17.091C14.337 17.568 14.684 17.897 15.107 17.897V17.896ZM27.564 37.521H25.768L27.09 36.281C28.18 35.259 28.632 34.584 28.632 33.725C28.632 32.516 27.718 31.788 26.627 31.788C25.933 31.788 25.382 32.061 24.964 32.462L24.258 33.485L24.578 33.747C24.941 33.235 25.394 32.777 26.054 32.777C26.814 32.777 27.211 33.321 27.211 34.073C27.211 34.899 26.771 35.715 25.999 36.619C25.459 37.25 24.819 37.849 24.236 38.415V38.697H28.654C28.774 38.24 28.908 37.555 29.084 36.924L28.721 36.793C28.313 37.5 28.225 37.521 27.564 37.521ZM22.739 37.337V31.788C21.769 32.048 20.954 32.244 20.227 32.354V32.67L20.789 32.712C21.241 32.746 21.285 32.822 21.285 33.387V37.337C21.285 38.108 21.185 38.273 20.315 38.327V38.697H23.697V38.327C22.816 38.272 22.739 38.087 22.739 37.337ZM43.415 20.505C43.257 20.571 43.077 20.649 42.795 20.649C41.975 20.649 41.458 19.817 41.458 18.873C41.458 18.162 41.716 17.373 42.324 17.373C43.19 17.373 43.471 18.595 43.471 19.683C43.471 19.927 43.46 20.193 43.415 20.505ZM42.537 16.928C40.827 16.928 39.973 18.328 39.973 19.316C39.973 20.482 40.805 21.416 42.143 21.416C42.335 21.416 42.526 21.36 42.796 21.216L43.336 20.939C43.055 22.271 41.896 23.459 40.232 23.749L40.299 24.148C40.805 24.137 41.772 23.96 42.222 23.781C43.808 23.16 45 21.748 45 19.738C45 18.217 44.179 16.928 42.537 16.928ZM36 23.002H30V29.002H7.406L36 10.811V23V23.002ZM31 29.002H36V24.002H31V29.002ZM37 30.002V9L4 30H37V30.002Z" fill="#9371B5"/>
</svg>
