<svg width="50" height="48" viewBox="0 0 50 48" fill="none" xmlns="http://www.w3.org/2000/svg">
<path fill-rule="evenodd" clip-rule="evenodd" d="M18.445 21.9999C20.347 21.9999 21.89 20.4339 21.89 18.5019C21.89 16.5699 20.347 15.0029 18.445 15.0029C16.543 15.0029 15 16.5699 15 18.5019C15 20.4339 16.543 21.9999 18.445 21.9999ZM28.111 28.5229C24.669 33.8939 17.831 22.4409 11.001 30.0879C11.037 30.1049 11.001 33.9999 11.001 33.9999H39.001V20.6979C39.001 20.6979 32.946 20.9779 28.111 28.5229Z" fill="#00ADB8"/>
<path fill-rule="evenodd" clip-rule="evenodd" d="M40 34H39V35H11V34H10V14H11V13H39V14H40V34ZM42 14V11H39V12H11V11H8V14H9V34H8V37H11V36H39V37H42V34H41V14H42Z" fill="#00ADB8"/>
</svg>
