<svg width="40" height="40" viewBox="0 0 40 40" fill="none" xmlns="http://www.w3.org/2000/svg">
<mask id="mask0_195_696" style="mask-type:alpha" maskUnits="userSpaceOnUse" x="0" y="0" width="40" height="40">
<rect width="40" height="40" fill="#D9D9D9"/>
</mask>
<g mask="url(#mask0_195_696)">
<path d="M7.52116 32.4792C6.95171 31.9098 6.66699 31.213 6.66699 30.3888C6.66699 29.5649 6.95171 28.8683 7.52116 28.2988C8.0906 27.7294 8.78741 27.4447 9.61158 27.4447C10.4355 27.4447 11.1321 27.7294 11.7016 28.2988C12.271 28.8683 12.5557 29.5649 12.5557 30.3888C12.5557 31.213 12.271 31.9098 11.7016 32.4792C11.1321 33.0487 10.4355 33.3334 9.61158 33.3334C8.78741 33.3334 8.0906 33.0487 7.52116 32.4792ZM17.9099 32.4792C17.3405 31.9098 17.0557 31.213 17.0557 30.3888C17.0557 29.5649 17.3405 28.8683 17.9099 28.2988C18.4794 27.7294 19.1762 27.4447 20.0003 27.4447C20.8245 27.4447 21.5213 27.7294 22.0907 28.2988C22.6602 28.8683 22.9449 29.5649 22.9449 30.3888C22.9449 31.213 22.6602 31.9098 22.0907 32.4792C21.5213 33.0487 20.8245 33.3334 20.0003 33.3334C19.1762 33.3334 18.4794 33.0487 17.9099 32.4792ZM28.2991 32.4792C27.7296 31.9098 27.4449 31.213 27.4449 30.3888C27.4449 29.5649 27.7296 28.8683 28.2991 28.2988C28.8685 27.7294 29.5652 27.4447 30.3891 27.4447C31.2132 27.4447 31.91 27.7294 32.4795 28.2988C33.0489 28.8683 33.3337 29.5649 33.3337 30.3888C33.3337 31.213 33.0489 31.9098 32.4795 32.4792C31.91 33.0487 31.2132 33.3334 30.3891 33.3334C29.5652 33.3334 28.8685 33.0487 28.2991 32.4792ZM7.52116 22.0905C6.95171 21.5211 6.66699 20.8242 6.66699 20.0001C6.66699 19.1759 6.95171 18.4791 7.52116 17.9097C8.0906 17.3402 8.78741 17.0555 9.61158 17.0555C10.4355 17.0555 11.1321 17.3402 11.7016 17.9097C12.271 18.4791 12.5557 19.1759 12.5557 20.0001C12.5557 20.8242 12.271 21.5211 11.7016 22.0905C11.1321 22.6599 10.4355 22.9447 9.61158 22.9447C8.78741 22.9447 8.0906 22.6599 7.52116 22.0905ZM17.9099 22.0905C17.3405 21.5211 17.0557 20.8242 17.0557 20.0001C17.0557 19.1759 17.3405 18.4791 17.9099 17.9097C18.4794 17.3402 19.1762 17.0555 20.0003 17.0555C20.8245 17.0555 21.5213 17.3402 22.0907 17.9097C22.6602 18.4791 22.9449 19.1759 22.9449 20.0001C22.9449 20.8242 22.6602 21.5211 22.0907 22.0905C21.5213 22.6599 20.8245 22.9447 20.0003 22.9447C19.1762 22.9447 18.4794 22.6599 17.9099 22.0905ZM28.2991 22.0905C27.7296 21.5211 27.4449 20.8242 27.4449 20.0001C27.4449 19.1759 27.7296 18.4791 28.2991 17.9097C28.8685 17.3402 29.5652 17.0555 30.3891 17.0555C31.2132 17.0555 31.91 17.3402 32.4795 17.9097C33.0489 18.4791 33.3337 19.1759 33.3337 20.0001C33.3337 20.8242 33.0489 21.5211 32.4795 22.0905C31.91 22.6599 31.2132 22.9447 30.3891 22.9447C29.5652 22.9447 28.8685 22.6599 28.2991 22.0905ZM7.52116 11.7013C6.95171 11.1319 6.66699 10.4352 6.66699 9.61133C6.66699 8.78716 6.95171 8.09036 7.52116 7.52091C8.0906 6.95147 8.78741 6.66675 9.61158 6.66675C10.4355 6.66675 11.1321 6.95147 11.7016 7.52091C12.271 8.09036 12.5557 8.78716 12.5557 9.61133C12.5557 10.4352 12.271 11.1319 11.7016 11.7013C11.1321 12.2708 10.4355 12.5555 9.61158 12.5555C8.78741 12.5555 8.0906 12.2708 7.52116 11.7013ZM17.9099 11.7013C17.3405 11.1319 17.0557 10.4352 17.0557 9.61133C17.0557 8.78716 17.3405 8.09036 17.9099 7.52091C18.4794 6.95147 19.1762 6.66675 20.0003 6.66675C20.8245 6.66675 21.5213 6.95147 22.0907 7.52091C22.6602 8.09036 22.9449 8.78716 22.9449 9.61133C22.9449 10.4352 22.6602 11.1319 22.0907 11.7013C21.5213 12.2708 20.8245 12.5555 20.0003 12.5555C19.1762 12.5555 18.4794 12.2708 17.9099 11.7013ZM28.2991 11.7013C27.7296 11.1319 27.4449 10.4352 27.4449 9.61133C27.4449 8.78716 27.7296 8.09036 28.2991 7.52091C28.8685 6.95147 29.5652 6.66675 30.3891 6.66675C31.2132 6.66675 31.91 6.95147 32.4795 7.52091C33.0489 8.09036 33.3337 8.78716 33.3337 9.61133C33.3337 10.4352 33.0489 11.1319 32.4795 11.7013C31.91 12.2708 31.2132 12.5555 30.3891 12.5555C29.5652 12.5555 28.8685 12.2708 28.2991 11.7013Z" fill="#27979D"/>
</g>
</svg>
